<?xml version="1.0" encoding="utf-8" standalone="no"?>
<!DOCTYPE svg PUBLIC "-//W3C//DTD SVG 1.1//EN"
  "http://www.w3.org/Graphics/SVG/1.1/DTD/svg11.dtd">
<svg xmlns:xlink="http://www.w3.org/1999/xlink" width="360pt" height="360pt" viewBox="0 0 360 360" xmlns="http://www.w3.org/2000/svg" version="1.1">
 <metadata>
  <rdf:RDF xmlns:dc="http://purl.org/dc/elements/1.1/" xmlns:cc="http://creativecommons.org/ns#" xmlns:rdf="http://www.w3.org/1999/02/22-rdf-syntax-ns#">
   <cc:Work>
    <dc:type rdf:resource="http://purl.org/dc/dcmitype/StillImage"/>
    <dc:date>2023-06-05T14:41:43.208267</dc:date>
    <dc:format>image/svg+xml</dc:format>
    <dc:creator>
     <cc:Agent>
      <dc:title>Matplotlib v3.6.0, https://matplotlib.org/</dc:title>
     </cc:Agent>
    </dc:creator>
   </cc:Work>
  </rdf:RDF>
 </metadata>
 <defs>
  <style type="text/css">*{stroke-linejoin: round; stroke-linecap: butt}</style>
 </defs>
 <g id="figure_1">
  <g id="patch_1">
   <path d="M 0 360 
L 360 360 
L 360 0 
L 0 0 
L 0 360 
z
" style="fill: none"/>
  </g>
  <g id="axes_1">
   <g id="patch_2">
    <path d="M 44.74 307.64 
L 331.177928 307.64 
L 331.177928 49.92 
L 44.74 49.92 
z
" style="fill: #ffffff"/>
   </g>
   <g id="PathCollection_1">
    <defs>
     <path id="md9d5d36123" d="M 0 3 
C 0.795609 3 1.55874 2.683901 2.12132 2.12132 
C 2.683901 1.55874 3 0.795609 3 0 
C 3 -0.795609 2.683901 -1.55874 2.12132 -2.12132 
C 1.55874 -2.683901 0.795609 -3 0 -3 
C -0.795609 -3 -1.55874 -2.683901 -2.12132 -2.12132 
C -2.683901 -1.55874 -3 -0.795609 -3 0 
C -3 0.795609 -2.683901 1.55874 -2.12132 2.12132 
C -1.55874 2.683901 -0.795609 3 0 3 
z
" style="stroke: #000000"/>
    </defs>
    <g clip-path="url(#pcc4fa77675)">
     <use xlink:href="#md9d5d36123" x="215.132216" y="286.51541" style="stroke: #000000"/>
    </g>
   </g>
   <g id="patch_3">
    <path d="M 57.759906 307.64 
L 62.337393 307.64 
L 62.337393 -279.380929 
L 57.759906 -279.380929 
z
" clip-path="url(#pcc4fa77675)" style="fill: #1f77b4"/>
   </g>
   <g id="patch_4">
    <path d="M 62.337393 307.64 
L 66.914879 307.64 
L 66.914879 95.927534 
L 62.337393 95.927534 
z
" clip-path="url(#pcc4fa77675)" style="fill: #1f77b4"/>
   </g>
   <g id="patch_5">
    <path d="M 66.914879 307.64 
L 71.492366 307.64 
L 71.492366 76.680946 
L 66.914879 76.680946 
z
" clip-path="url(#pcc4fa77675)" style="fill: #1f77b4"/>
   </g>
   <g id="patch_6">
    <path d="M 71.492366 307.64 
L 76.069853 307.64 
L 76.069853 168.102238 
L 71.492366 168.102238 
z
" clip-path="url(#pcc4fa77675)" style="fill: #1f77b4"/>
   </g>
   <g id="patch_7">
    <path d="M 76.069853 307.64 
L 80.647339 307.64 
L 80.647339 201.783767 
L 76.069853 201.783767 
z
" clip-path="url(#pcc4fa77675)" style="fill: #1f77b4"/>
   </g>
   <g id="patch_8">
    <path d="M 80.647339 307.64 
L 85.224826 307.64 
L 85.224826 187.348826 
L 80.647339 187.348826 
z
" clip-path="url(#pcc4fa77675)" style="fill: #1f77b4"/>
   </g>
   <g id="patch_9">
    <path d="M 85.224826 307.64 
L 89.802313 307.64 
L 89.802313 225.842002 
L 85.224826 225.842002 
z
" clip-path="url(#pcc4fa77675)" style="fill: #1f77b4"/>
   </g>
   <g id="patch_10">
    <path d="M 89.802313 307.64 
L 94.379799 307.64 
L 94.379799 216.218708 
L 89.802313 216.218708 
z
" clip-path="url(#pcc4fa77675)" style="fill: #1f77b4"/>
   </g>
   <g id="patch_11">
    <path d="M 94.379799 307.64 
L 98.957286 307.64 
L 98.957286 230.653649 
L 94.379799 230.653649 
z
" clip-path="url(#pcc4fa77675)" style="fill: #1f77b4"/>
   </g>
   <g id="patch_12">
    <path d="M 98.957286 307.64 
L 103.534773 307.64 
L 103.534773 254.711883 
L 98.957286 254.711883 
z
" clip-path="url(#pcc4fa77675)" style="fill: #1f77b4"/>
   </g>
   <g id="patch_13">
    <path d="M 103.534773 307.64 
L 108.112259 307.64 
L 108.112259 245.08859 
L 103.534773 245.08859 
z
" clip-path="url(#pcc4fa77675)" style="fill: #1f77b4"/>
   </g>
   <g id="patch_14">
    <path d="M 108.112259 307.64 
L 112.689746 307.64 
L 112.689746 245.08859 
L 108.112259 245.08859 
z
" clip-path="url(#pcc4fa77675)" style="fill: #1f77b4"/>
   </g>
   <g id="patch_15">
    <path d="M 112.689746 307.64 
L 117.267233 307.64 
L 117.267233 273.958471 
L 112.689746 273.958471 
z
" clip-path="url(#pcc4fa77675)" style="fill: #1f77b4"/>
   </g>
   <g id="patch_16">
    <path d="M 117.267233 307.64 
L 121.84472 307.64 
L 121.84472 283.581765 
L 117.267233 283.581765 
z
" clip-path="url(#pcc4fa77675)" style="fill: #1f77b4"/>
   </g>
   <g id="patch_17">
    <path d="M 121.84472 307.64 
L 126.422206 307.64 
L 126.422206 249.900236 
L 121.84472 249.900236 
z
" clip-path="url(#pcc4fa77675)" style="fill: #1f77b4"/>
   </g>
   <g id="patch_18">
    <path d="M 126.422206 307.64 
L 130.999693 307.64 
L 130.999693 273.958471 
L 126.422206 273.958471 
z
" clip-path="url(#pcc4fa77675)" style="fill: #1f77b4"/>
   </g>
   <g id="patch_19">
    <path d="M 130.999693 307.64 
L 135.57718 307.64 
L 135.57718 259.52353 
L 130.999693 259.52353 
z
" clip-path="url(#pcc4fa77675)" style="fill: #1f77b4"/>
   </g>
   <g id="patch_20">
    <path d="M 135.57718 307.64 
L 140.154666 307.64 
L 140.154666 273.958471 
L 135.57718 273.958471 
z
" clip-path="url(#pcc4fa77675)" style="fill: #1f77b4"/>
   </g>
   <g id="patch_21">
    <path d="M 140.154666 307.64 
L 144.732153 307.64 
L 144.732153 293.205059 
L 140.154666 293.205059 
z
" clip-path="url(#pcc4fa77675)" style="fill: #1f77b4"/>
   </g>
   <g id="patch_22">
    <path d="M 144.732153 307.64 
L 149.30964 307.64 
L 149.30964 273.958471 
L 144.732153 273.958471 
z
" clip-path="url(#pcc4fa77675)" style="fill: #1f77b4"/>
   </g>
   <g id="patch_23">
    <path d="M 149.30964 307.64 
L 153.887126 307.64 
L 153.887126 283.581765 
L 149.30964 283.581765 
z
" clip-path="url(#pcc4fa77675)" style="fill: #1f77b4"/>
   </g>
   <g id="patch_24">
    <path d="M 153.887126 307.64 
L 158.464613 307.64 
L 158.464613 273.958471 
L 153.887126 273.958471 
z
" clip-path="url(#pcc4fa77675)" style="fill: #1f77b4"/>
   </g>
   <g id="patch_25">
    <path d="M 158.464613 307.64 
L 163.0421 307.64 
L 163.0421 293.205059 
L 158.464613 293.205059 
z
" clip-path="url(#pcc4fa77675)" style="fill: #1f77b4"/>
   </g>
   <g id="patch_26">
    <path d="M 163.0421 307.64 
L 167.619586 307.64 
L 167.619586 298.016706 
L 163.0421 298.016706 
z
" clip-path="url(#pcc4fa77675)" style="fill: #1f77b4"/>
   </g>
   <g id="patch_27">
    <path d="M 167.619586 307.64 
L 172.197073 307.64 
L 172.197073 278.770118 
L 167.619586 278.770118 
z
" clip-path="url(#pcc4fa77675)" style="fill: #1f77b4"/>
   </g>
   <g id="patch_28">
    <path d="M 172.197073 307.64 
L 176.77456 307.64 
L 176.77456 269.146824 
L 172.197073 269.146824 
z
" clip-path="url(#pcc4fa77675)" style="fill: #1f77b4"/>
   </g>
   <g id="patch_29">
    <path d="M 176.77456 307.64 
L 181.352047 307.64 
L 181.352047 293.205059 
L 176.77456 293.205059 
z
" clip-path="url(#pcc4fa77675)" style="fill: #1f77b4"/>
   </g>
   <g id="patch_30">
    <path d="M 181.352047 307.64 
L 185.929533 307.64 
L 185.929533 288.393412 
L 181.352047 288.393412 
z
" clip-path="url(#pcc4fa77675)" style="fill: #1f77b4"/>
   </g>
   <g id="patch_31">
    <path d="M 185.929533 307.64 
L 190.50702 307.64 
L 190.50702 307.64 
L 185.929533 307.64 
z
" clip-path="url(#pcc4fa77675)" style="fill: #1f77b4"/>
   </g>
   <g id="patch_32">
    <path d="M 190.50702 307.64 
L 195.084507 307.64 
L 195.084507 283.581765 
L 190.50702 283.581765 
z
" clip-path="url(#pcc4fa77675)" style="fill: #1f77b4"/>
   </g>
   <g id="patch_33">
    <path d="M 195.084507 307.64 
L 199.661993 307.64 
L 199.661993 288.393412 
L 195.084507 288.393412 
z
" clip-path="url(#pcc4fa77675)" style="fill: #1f77b4"/>
   </g>
   <g id="patch_34">
    <path d="M 199.661993 307.64 
L 204.23948 307.64 
L 204.23948 298.016706 
L 199.661993 298.016706 
z
" clip-path="url(#pcc4fa77675)" style="fill: #1f77b4"/>
   </g>
   <g id="patch_35">
    <path d="M 204.23948 307.64 
L 208.816967 307.64 
L 208.816967 302.828353 
L 204.23948 302.828353 
z
" clip-path="url(#pcc4fa77675)" style="fill: #1f77b4"/>
   </g>
   <g id="patch_36">
    <path d="M 208.816967 307.64 
L 213.394453 307.64 
L 213.394453 307.64 
L 208.816967 307.64 
z
" clip-path="url(#pcc4fa77675)" style="fill: #1f77b4"/>
   </g>
   <g id="patch_37">
    <path d="M 213.394453 307.64 
L 217.97194 307.64 
L 217.97194 302.828353 
L 213.394453 302.828353 
z
" clip-path="url(#pcc4fa77675)" style="fill: #1f77b4"/>
   </g>
   <g id="patch_38">
    <path d="M 217.97194 307.64 
L 222.549427 307.64 
L 222.549427 293.205059 
L 217.97194 293.205059 
z
" clip-path="url(#pcc4fa77675)" style="fill: #1f77b4"/>
   </g>
   <g id="patch_39">
    <path d="M 222.549427 307.64 
L 227.126913 307.64 
L 227.126913 302.828353 
L 222.549427 302.828353 
z
" clip-path="url(#pcc4fa77675)" style="fill: #1f77b4"/>
   </g>
   <g id="patch_40">
    <path d="M 227.126913 307.64 
L 231.7044 307.64 
L 231.7044 307.64 
L 227.126913 307.64 
z
" clip-path="url(#pcc4fa77675)" style="fill: #1f77b4"/>
   </g>
   <g id="patch_41">
    <path d="M 231.7044 307.64 
L 236.281887 307.64 
L 236.281887 307.64 
L 231.7044 307.64 
z
" clip-path="url(#pcc4fa77675)" style="fill: #1f77b4"/>
   </g>
   <g id="patch_42">
    <path d="M 236.281887 307.64 
L 240.859374 307.64 
L 240.859374 307.64 
L 236.281887 307.64 
z
" clip-path="url(#pcc4fa77675)" style="fill: #1f77b4"/>
   </g>
   <g id="patch_43">
    <path d="M 240.859374 307.64 
L 245.43686 307.64 
L 245.43686 288.393412 
L 240.859374 288.393412 
z
" clip-path="url(#pcc4fa77675)" style="fill: #1f77b4"/>
   </g>
   <g id="patch_44">
    <path d="M 245.43686 307.64 
L 250.014347 307.64 
L 250.014347 302.828353 
L 245.43686 302.828353 
z
" clip-path="url(#pcc4fa77675)" style="fill: #1f77b4"/>
   </g>
   <g id="patch_45">
    <path d="M 250.014347 307.64 
L 254.591834 307.64 
L 254.591834 302.828353 
L 250.014347 302.828353 
z
" clip-path="url(#pcc4fa77675)" style="fill: #1f77b4"/>
   </g>
   <g id="patch_46">
    <path d="M 254.591834 307.64 
L 259.16932 307.64 
L 259.16932 307.64 
L 254.591834 307.64 
z
" clip-path="url(#pcc4fa77675)" style="fill: #1f77b4"/>
   </g>
   <g id="patch_47">
    <path d="M 259.16932 307.64 
L 263.746807 307.64 
L 263.746807 307.64 
L 259.16932 307.64 
z
" clip-path="url(#pcc4fa77675)" style="fill: #1f77b4"/>
   </g>
   <g id="patch_48">
    <path d="M 263.746807 307.64 
L 268.324294 307.64 
L 268.324294 307.64 
L 263.746807 307.64 
z
" clip-path="url(#pcc4fa77675)" style="fill: #1f77b4"/>
   </g>
   <g id="patch_49">
    <path d="M 268.324294 307.64 
L 272.90178 307.64 
L 272.90178 302.828353 
L 268.324294 302.828353 
z
" clip-path="url(#pcc4fa77675)" style="fill: #1f77b4"/>
   </g>
   <g id="patch_50">
    <path d="M 272.90178 307.64 
L 277.479267 307.64 
L 277.479267 307.64 
L 272.90178 307.64 
z
" clip-path="url(#pcc4fa77675)" style="fill: #1f77b4"/>
   </g>
   <g id="patch_51">
    <path d="M 277.479267 307.64 
L 282.056754 307.64 
L 282.056754 307.64 
L 277.479267 307.64 
z
" clip-path="url(#pcc4fa77675)" style="fill: #1f77b4"/>
   </g>
   <g id="patch_52">
    <path d="M 282.056754 307.64 
L 286.63424 307.64 
L 286.63424 302.828353 
L 282.056754 302.828353 
z
" clip-path="url(#pcc4fa77675)" style="fill: #1f77b4"/>
   </g>
   <g id="matplotlib.axis_1">
    <g id="xtick_1">
     <g id="line2d_1">
      <defs>
       <path id="mda3c0effef" d="M 0 0 
L 0 3.5 
" style="stroke: #000000; stroke-width: 0.8"/>
      </defs>
      <g>
       <use xlink:href="#mda3c0effef" x="57.759779" y="307.64" style="stroke: #000000; stroke-width: 0.8"/>
      </g>
     </g>
     <g id="text_1">
      <!-- 0.0 -->
      <g transform="translate(40.266341 331.356562) scale(0.22 -0.22)">
       <defs>
        <path id="DejaVuSans-30" d="M 2034 4250 
Q 1547 4250 1301 3770 
Q 1056 3291 1056 2328 
Q 1056 1369 1301 889 
Q 1547 409 2034 409 
Q 2525 409 2770 889 
Q 3016 1369 3016 2328 
Q 3016 3291 2770 3770 
Q 2525 4250 2034 4250 
z
M 2034 4750 
Q 2819 4750 3233 4129 
Q 3647 3509 3647 2328 
Q 3647 1150 3233 529 
Q 2819 -91 2034 -91 
Q 1250 -91 836 529 
Q 422 1150 422 2328 
Q 422 3509 836 4129 
Q 1250 4750 2034 4750 
z
" transform="scale(0.015625)"/>
        <path id="DejaVuSans-2e" d="M 684 794 
L 1344 794 
L 1344 0 
L 684 0 
L 684 794 
z
" transform="scale(0.015625)"/>
       </defs>
       <use xlink:href="#DejaVuSans-30"/>
       <use xlink:href="#DejaVuSans-2e" x="63.623047"/>
       <use xlink:href="#DejaVuSans-30" x="95.410156"/>
      </g>
     </g>
    </g>
    <g id="xtick_2">
     <g id="line2d_2">
      <g>
       <use xlink:href="#mda3c0effef" x="188.08923" y="307.64" style="stroke: #000000; stroke-width: 0.8"/>
      </g>
     </g>
     <g id="text_2">
      <!-- 0.5 -->
      <g transform="translate(170.595792 331.356562) scale(0.22 -0.22)">
       <defs>
        <path id="DejaVuSans-35" d="M 691 4666 
L 3169 4666 
L 3169 4134 
L 1269 4134 
L 1269 2991 
Q 1406 3038 1543 3061 
Q 1681 3084 1819 3084 
Q 2600 3084 3056 2656 
Q 3513 2228 3513 1497 
Q 3513 744 3044 326 
Q 2575 -91 1722 -91 
Q 1428 -91 1123 -41 
Q 819 9 494 109 
L 494 744 
Q 775 591 1075 516 
Q 1375 441 1709 441 
Q 2250 441 2565 725 
Q 2881 1009 2881 1497 
Q 2881 1984 2565 2268 
Q 2250 2553 1709 2553 
Q 1456 2553 1204 2497 
Q 953 2441 691 2322 
L 691 4666 
z
" transform="scale(0.015625)"/>
       </defs>
       <use xlink:href="#DejaVuSans-30"/>
       <use xlink:href="#DejaVuSans-2e" x="63.623047"/>
       <use xlink:href="#DejaVuSans-35" x="95.410156"/>
      </g>
     </g>
    </g>
    <g id="xtick_3">
     <g id="line2d_3">
      <g>
       <use xlink:href="#mda3c0effef" x="318.418681" y="307.64" style="stroke: #000000; stroke-width: 0.8"/>
      </g>
     </g>
     <g id="text_3">
      <!-- 1.0 -->
      <g transform="translate(300.925243 331.356562) scale(0.22 -0.22)">
       <defs>
        <path id="DejaVuSans-31" d="M 794 531 
L 1825 531 
L 1825 4091 
L 703 3866 
L 703 4441 
L 1819 4666 
L 2450 4666 
L 2450 531 
L 3481 531 
L 3481 0 
L 794 0 
L 794 531 
z
" transform="scale(0.015625)"/>
       </defs>
       <use xlink:href="#DejaVuSans-31"/>
       <use xlink:href="#DejaVuSans-2e" x="63.623047"/>
       <use xlink:href="#DejaVuSans-30" x="95.410156"/>
      </g>
     </g>
    </g>
   </g>
   <g id="matplotlib.axis_2">
    <g id="ytick_1">
     <g id="line2d_4">
      <defs>
       <path id="ma2adee30a1" d="M 0 0 
L -3.5 0 
" style="stroke: #000000; stroke-width: 0.8"/>
      </defs>
      <g>
       <use xlink:href="#ma2adee30a1" x="44.74" y="307.64" style="stroke: #000000; stroke-width: 0.8"/>
      </g>
     </g>
     <g id="text_4">
      <!-- 0 -->
      <g transform="translate(23.7425 315.998281) scale(0.22 -0.22)">
       <use xlink:href="#DejaVuSans-30"/>
      </g>
     </g>
    </g>
    <g id="ytick_2">
     <g id="line2d_5">
      <g>
       <use xlink:href="#ma2adee30a1" x="44.74" y="223.141639" style="stroke: #000000; stroke-width: 0.8"/>
      </g>
     </g>
     <g id="text_5">
      <!-- 2 -->
      <g transform="translate(23.7425 231.499921) scale(0.22 -0.22)">
       <defs>
        <path id="DejaVuSans-32" d="M 1228 531 
L 3431 531 
L 3431 0 
L 469 0 
L 469 531 
Q 828 903 1448 1529 
Q 2069 2156 2228 2338 
Q 2531 2678 2651 2914 
Q 2772 3150 2772 3378 
Q 2772 3750 2511 3984 
Q 2250 4219 1831 4219 
Q 1534 4219 1204 4116 
Q 875 4013 500 3803 
L 500 4441 
Q 881 4594 1212 4672 
Q 1544 4750 1819 4750 
Q 2544 4750 2975 4387 
Q 3406 4025 3406 3419 
Q 3406 3131 3298 2873 
Q 3191 2616 2906 2266 
Q 2828 2175 2409 1742 
Q 1991 1309 1228 531 
z
" transform="scale(0.015625)"/>
       </defs>
       <use xlink:href="#DejaVuSans-32"/>
      </g>
     </g>
    </g>
    <g id="ytick_3">
     <g id="line2d_6">
      <g>
       <use xlink:href="#ma2adee30a1" x="44.74" y="138.643279" style="stroke: #000000; stroke-width: 0.8"/>
      </g>
     </g>
     <g id="text_6">
      <!-- 4 -->
      <g transform="translate(23.7425 147.00156) scale(0.22 -0.22)">
       <defs>
        <path id="DejaVuSans-34" d="M 2419 4116 
L 825 1625 
L 2419 1625 
L 2419 4116 
z
M 2253 4666 
L 3047 4666 
L 3047 1625 
L 3713 1625 
L 3713 1100 
L 3047 1100 
L 3047 0 
L 2419 0 
L 2419 1100 
L 313 1100 
L 313 1709 
L 2253 4666 
z
" transform="scale(0.015625)"/>
       </defs>
       <use xlink:href="#DejaVuSans-34"/>
      </g>
     </g>
    </g>
    <g id="ytick_4">
     <g id="line2d_7">
      <g>
       <use xlink:href="#ma2adee30a1" x="44.74" y="54.144918" style="stroke: #000000; stroke-width: 0.8"/>
      </g>
     </g>
     <g id="text_7">
      <!-- 6 -->
      <g transform="translate(23.7425 62.503199) scale(0.22 -0.22)">
       <defs>
        <path id="DejaVuSans-36" d="M 2113 2584 
Q 1688 2584 1439 2293 
Q 1191 2003 1191 1497 
Q 1191 994 1439 701 
Q 1688 409 2113 409 
Q 2538 409 2786 701 
Q 3034 994 3034 1497 
Q 3034 2003 2786 2293 
Q 2538 2584 2113 2584 
z
M 3366 4563 
L 3366 3988 
Q 3128 4100 2886 4159 
Q 2644 4219 2406 4219 
Q 1781 4219 1451 3797 
Q 1122 3375 1075 2522 
Q 1259 2794 1537 2939 
Q 1816 3084 2150 3084 
Q 2853 3084 3261 2657 
Q 3669 2231 3669 1497 
Q 3669 778 3244 343 
Q 2819 -91 2113 -91 
Q 1303 -91 875 529 
Q 447 1150 447 2328 
Q 447 3434 972 4092 
Q 1497 4750 2381 4750 
Q 2619 4750 2861 4703 
Q 3103 4656 3366 4563 
z
" transform="scale(0.015625)"/>
       </defs>
       <use xlink:href="#DejaVuSans-36"/>
      </g>
     </g>
    </g>
   </g>
   <g id="line2d_8">
    <path d="M 58.020438 236.945503 
L 63.233616 229.961227 
L 67.404158 224.743127 
L 70.792724 220.836749 
L 73.920631 217.554887 
L 76.787879 214.860618 
L 79.394468 212.700559 
L 82.001057 210.838921 
L 84.346987 209.43465 
L 86.692917 208.299773 
L 88.778188 207.525088 
L 90.863459 206.976293 
L 92.94873 206.657154 
L 95.034002 206.56987 
L 97.119273 206.715043 
L 99.204544 207.091672 
L 101.289815 207.697164 
L 103.375087 208.527367 
L 105.721017 209.72283 
L 108.066947 211.185223 
L 110.412877 212.902117 
L 113.019466 215.090654 
L 115.886714 217.813542 
L 119.014621 221.123074 
L 122.403186 225.054922 
L 126.31307 229.958972 
L 131.00493 236.227726 
L 138.042721 246.055335 
L 147.426441 259.107847 
L 152.639619 265.970732 
L 157.07082 271.44715 
L 161.241363 276.241674 
L 165.151246 280.386857 
L 168.800471 283.934134 
L 172.449696 287.164515 
L 175.838261 289.881093 
L 179.226827 292.330569 
L 182.615393 294.52215 
L 186.264617 296.60802 
L 189.913842 298.427375 
L 193.563067 300.00072 
L 197.47295 301.438232 
L 201.643493 302.718813 
L 206.074694 303.829642 
L 210.766554 304.766527 
L 215.979732 305.568446 
L 221.714228 306.218459 
L 228.49136 306.749274 
L 236.571786 307.145815 
L 246.998142 307.420427 
L 262.377017 307.580253 
L 294.438062 307.637351 
L 318.158022 307.639814 
L 318.158022 307.639814 
" clip-path="url(#pcc4fa77675)" style="fill: none; stroke: #ff0000; stroke-width: 1.5; stroke-linecap: square"/>
   </g>
   <g id="line2d_9">
    <path d="M 61.429651 -1 
L 62.19098 28.266589 
L 62.972957 51.439831 
L 64.015592 75.409277 
L 65.058228 94.144899 
L 66.100864 109.333092 
L 67.404158 124.832479 
L 68.707453 137.562435 
L 70.010747 148.275919 
L 71.5747 159.153482 
L 73.138654 168.399901 
L 74.702607 176.396959 
L 76.52722 184.499256 
L 78.351832 191.56107 
L 80.176444 197.795473 
L 82.261715 204.105751 
L 84.346987 209.710477 
L 86.692917 215.330605 
L 89.038847 220.355725 
L 91.384777 224.888859 
L 93.991366 229.444514 
L 96.597955 233.574712 
L 99.465203 237.704548 
L 102.59311 241.793326 
L 105.721017 245.514768 
L 109.109582 249.194895 
L 112.758807 252.810323 
L 116.408032 256.117843 
L 120.317915 259.368808 
L 124.488458 262.549225 
L 128.919659 265.648566 
L 133.611519 268.659099 
L 138.564038 271.575308 
L 143.777216 274.393392 
L 149.511712 277.234627 
L 155.506867 279.953149 
L 161.762681 282.550689 
L 168.539812 285.123719 
L 175.838261 287.64911 
L 183.39737 290.028741 
L 191.477796 292.338157 
L 200.079539 294.560483 
L 209.202601 296.680195 
L 218.586321 298.631357 
L 228.49136 300.462118 
L 238.657057 302.116458 
L 249.344072 303.626736 
L 260.031087 304.913475 
L 270.718102 305.981002 
L 281.405117 306.823975 
L 291.310155 307.383809 
L 299.390581 307.632854 
L 309.556278 307.64 
L 318.158022 307.64 
L 318.158022 307.64 
" clip-path="url(#pcc4fa77675)" style="fill: none; stroke: #008000; stroke-width: 1.5; stroke-linecap: square"/>
   </g>
   <g id="patch_53">
    <path d="M 44.74 307.64 
L 44.74 49.92 
" style="fill: none; stroke: #000000; stroke-linejoin: miter; stroke-linecap: square"/>
   </g>
   <g id="patch_54">
    <path d="M 331.177928 307.64 
L 331.177928 49.92 
" style="fill: none; stroke: #000000; stroke-linejoin: miter; stroke-linecap: square"/>
   </g>
   <g id="patch_55">
    <path d="M 44.74 307.64 
L 331.177928 307.64 
" style="fill: none; stroke: #000000; stroke-linejoin: miter; stroke-linecap: square"/>
   </g>
   <g id="patch_56">
    <path d="M 44.74 49.92 
L 331.177928 49.92 
" style="fill: none; stroke: #000000; stroke-linejoin: miter; stroke-linecap: square"/>
   </g>
   <g id="text_8">
    <!-- oleate/vaccenate (18:1) -->
    <g transform="translate(29.831214 43.92) scale(0.264 -0.264)">
     <defs>
      <path id="DejaVuSans-6f" d="M 1959 3097 
Q 1497 3097 1228 2736 
Q 959 2375 959 1747 
Q 959 1119 1226 758 
Q 1494 397 1959 397 
Q 2419 397 2687 759 
Q 2956 1122 2956 1747 
Q 2956 2369 2687 2733 
Q 2419 3097 1959 3097 
z
M 1959 3584 
Q 2709 3584 3137 3096 
Q 3566 2609 3566 1747 
Q 3566 888 3137 398 
Q 2709 -91 1959 -91 
Q 1206 -91 779 398 
Q 353 888 353 1747 
Q 353 2609 779 3096 
Q 1206 3584 1959 3584 
z
" transform="scale(0.015625)"/>
      <path id="DejaVuSans-6c" d="M 603 4863 
L 1178 4863 
L 1178 0 
L 603 0 
L 603 4863 
z
" transform="scale(0.015625)"/>
      <path id="DejaVuSans-65" d="M 3597 1894 
L 3597 1613 
L 953 1613 
Q 991 1019 1311 708 
Q 1631 397 2203 397 
Q 2534 397 2845 478 
Q 3156 559 3463 722 
L 3463 178 
Q 3153 47 2828 -22 
Q 2503 -91 2169 -91 
Q 1331 -91 842 396 
Q 353 884 353 1716 
Q 353 2575 817 3079 
Q 1281 3584 2069 3584 
Q 2775 3584 3186 3129 
Q 3597 2675 3597 1894 
z
M 3022 2063 
Q 3016 2534 2758 2815 
Q 2500 3097 2075 3097 
Q 1594 3097 1305 2825 
Q 1016 2553 972 2059 
L 3022 2063 
z
" transform="scale(0.015625)"/>
      <path id="DejaVuSans-61" d="M 2194 1759 
Q 1497 1759 1228 1600 
Q 959 1441 959 1056 
Q 959 750 1161 570 
Q 1363 391 1709 391 
Q 2188 391 2477 730 
Q 2766 1069 2766 1631 
L 2766 1759 
L 2194 1759 
z
M 3341 1997 
L 3341 0 
L 2766 0 
L 2766 531 
Q 2569 213 2275 61 
Q 1981 -91 1556 -91 
Q 1019 -91 701 211 
Q 384 513 384 1019 
Q 384 1609 779 1909 
Q 1175 2209 1959 2209 
L 2766 2209 
L 2766 2266 
Q 2766 2663 2505 2880 
Q 2244 3097 1772 3097 
Q 1472 3097 1187 3025 
Q 903 2953 641 2809 
L 641 3341 
Q 956 3463 1253 3523 
Q 1550 3584 1831 3584 
Q 2591 3584 2966 3190 
Q 3341 2797 3341 1997 
z
" transform="scale(0.015625)"/>
      <path id="DejaVuSans-74" d="M 1172 4494 
L 1172 3500 
L 2356 3500 
L 2356 3053 
L 1172 3053 
L 1172 1153 
Q 1172 725 1289 603 
Q 1406 481 1766 481 
L 2356 481 
L 2356 0 
L 1766 0 
Q 1100 0 847 248 
Q 594 497 594 1153 
L 594 3053 
L 172 3053 
L 172 3500 
L 594 3500 
L 594 4494 
L 1172 4494 
z
" transform="scale(0.015625)"/>
      <path id="DejaVuSans-2f" d="M 1625 4666 
L 2156 4666 
L 531 -594 
L 0 -594 
L 1625 4666 
z
" transform="scale(0.015625)"/>
      <path id="DejaVuSans-76" d="M 191 3500 
L 800 3500 
L 1894 563 
L 2988 3500 
L 3597 3500 
L 2284 0 
L 1503 0 
L 191 3500 
z
" transform="scale(0.015625)"/>
      <path id="DejaVuSans-63" d="M 3122 3366 
L 3122 2828 
Q 2878 2963 2633 3030 
Q 2388 3097 2138 3097 
Q 1578 3097 1268 2742 
Q 959 2388 959 1747 
Q 959 1106 1268 751 
Q 1578 397 2138 397 
Q 2388 397 2633 464 
Q 2878 531 3122 666 
L 3122 134 
Q 2881 22 2623 -34 
Q 2366 -91 2075 -91 
Q 1284 -91 818 406 
Q 353 903 353 1747 
Q 353 2603 823 3093 
Q 1294 3584 2113 3584 
Q 2378 3584 2631 3529 
Q 2884 3475 3122 3366 
z
" transform="scale(0.015625)"/>
      <path id="DejaVuSans-6e" d="M 3513 2113 
L 3513 0 
L 2938 0 
L 2938 2094 
Q 2938 2591 2744 2837 
Q 2550 3084 2163 3084 
Q 1697 3084 1428 2787 
Q 1159 2491 1159 1978 
L 1159 0 
L 581 0 
L 581 3500 
L 1159 3500 
L 1159 2956 
Q 1366 3272 1645 3428 
Q 1925 3584 2291 3584 
Q 2894 3584 3203 3211 
Q 3513 2838 3513 2113 
z
" transform="scale(0.015625)"/>
      <path id="DejaVuSans-20" transform="scale(0.015625)"/>
      <path id="DejaVuSans-28" d="M 1984 4856 
Q 1566 4138 1362 3434 
Q 1159 2731 1159 2009 
Q 1159 1288 1364 580 
Q 1569 -128 1984 -844 
L 1484 -844 
Q 1016 -109 783 600 
Q 550 1309 550 2009 
Q 550 2706 781 3412 
Q 1013 4119 1484 4856 
L 1984 4856 
z
" transform="scale(0.015625)"/>
      <path id="DejaVuSans-38" d="M 2034 2216 
Q 1584 2216 1326 1975 
Q 1069 1734 1069 1313 
Q 1069 891 1326 650 
Q 1584 409 2034 409 
Q 2484 409 2743 651 
Q 3003 894 3003 1313 
Q 3003 1734 2745 1975 
Q 2488 2216 2034 2216 
z
M 1403 2484 
Q 997 2584 770 2862 
Q 544 3141 544 3541 
Q 544 4100 942 4425 
Q 1341 4750 2034 4750 
Q 2731 4750 3128 4425 
Q 3525 4100 3525 3541 
Q 3525 3141 3298 2862 
Q 3072 2584 2669 2484 
Q 3125 2378 3379 2068 
Q 3634 1759 3634 1313 
Q 3634 634 3220 271 
Q 2806 -91 2034 -91 
Q 1263 -91 848 271 
Q 434 634 434 1313 
Q 434 1759 690 2068 
Q 947 2378 1403 2484 
z
M 1172 3481 
Q 1172 3119 1398 2916 
Q 1625 2713 2034 2713 
Q 2441 2713 2670 2916 
Q 2900 3119 2900 3481 
Q 2900 3844 2670 4047 
Q 2441 4250 2034 4250 
Q 1625 4250 1398 4047 
Q 1172 3844 1172 3481 
z
" transform="scale(0.015625)"/>
      <path id="DejaVuSans-3a" d="M 750 794 
L 1409 794 
L 1409 0 
L 750 0 
L 750 794 
z
M 750 3309 
L 1409 3309 
L 1409 2516 
L 750 2516 
L 750 3309 
z
" transform="scale(0.015625)"/>
      <path id="DejaVuSans-29" d="M 513 4856 
L 1013 4856 
Q 1481 4119 1714 3412 
Q 1947 2706 1947 2009 
Q 1947 1309 1714 600 
Q 1481 -109 1013 -844 
L 513 -844 
Q 928 -128 1133 580 
Q 1338 1288 1338 2009 
Q 1338 2731 1133 3434 
Q 928 4138 513 4856 
z
" transform="scale(0.015625)"/>
     </defs>
     <use xlink:href="#DejaVuSans-6f"/>
     <use xlink:href="#DejaVuSans-6c" x="61.181641"/>
     <use xlink:href="#DejaVuSans-65" x="88.964844"/>
     <use xlink:href="#DejaVuSans-61" x="150.488281"/>
     <use xlink:href="#DejaVuSans-74" x="211.767578"/>
     <use xlink:href="#DejaVuSans-65" x="250.976562"/>
     <use xlink:href="#DejaVuSans-2f" x="312.5"/>
     <use xlink:href="#DejaVuSans-76" x="346.191406"/>
     <use xlink:href="#DejaVuSans-61" x="405.371094"/>
     <use xlink:href="#DejaVuSans-63" x="466.650391"/>
     <use xlink:href="#DejaVuSans-63" x="521.630859"/>
     <use xlink:href="#DejaVuSans-65" x="576.611328"/>
     <use xlink:href="#DejaVuSans-6e" x="638.134766"/>
     <use xlink:href="#DejaVuSans-61" x="701.513672"/>
     <use xlink:href="#DejaVuSans-74" x="762.792969"/>
     <use xlink:href="#DejaVuSans-65" x="802.001953"/>
     <use xlink:href="#DejaVuSans-20" x="863.525391"/>
     <use xlink:href="#DejaVuSans-28" x="895.3125"/>
     <use xlink:href="#DejaVuSans-31" x="934.326172"/>
     <use xlink:href="#DejaVuSans-38" x="997.949219"/>
     <use xlink:href="#DejaVuSans-3a" x="1061.572266"/>
     <use xlink:href="#DejaVuSans-31" x="1095.263672"/>
     <use xlink:href="#DejaVuSans-29" x="1158.886719"/>
    </g>
   </g>
   <g id="legend_1">
    <g id="patch_57">
     <path d="M 105.825053 187.29075 
L 312.697928 187.29075 
Q 317.977928 187.29075 317.977928 182.01075 
L 317.977928 68.4 
Q 317.977928 63.12 312.697928 63.12 
L 105.825053 63.12 
Q 100.545053 63.12 100.545053 68.4 
L 100.545053 182.01075 
Q 100.545053 187.29075 105.825053 187.29075 
z
" style="fill: #ffffff; opacity: 0.8; stroke: #cccccc; stroke-linejoin: miter"/>
    </g>
    <g id="line2d_10">
     <path d="M 111.105053 84.499875 
L 137.505053 84.499875 
L 163.905053 84.499875 
" style="fill: none; stroke: #ff0000; stroke-width: 1.5; stroke-linecap: square"/>
    </g>
    <g id="text_9">
     <!-- normal -->
     <g transform="translate(185.025053 93.739875) scale(0.264 -0.264)">
      <defs>
       <path id="DejaVuSans-72" d="M 2631 2963 
Q 2534 3019 2420 3045 
Q 2306 3072 2169 3072 
Q 1681 3072 1420 2755 
Q 1159 2438 1159 1844 
L 1159 0 
L 581 0 
L 581 3500 
L 1159 3500 
L 1159 2956 
Q 1341 3275 1631 3429 
Q 1922 3584 2338 3584 
Q 2397 3584 2469 3576 
Q 2541 3569 2628 3553 
L 2631 2963 
z
" transform="scale(0.015625)"/>
       <path id="DejaVuSans-6d" d="M 3328 2828 
Q 3544 3216 3844 3400 
Q 4144 3584 4550 3584 
Q 5097 3584 5394 3201 
Q 5691 2819 5691 2113 
L 5691 0 
L 5113 0 
L 5113 2094 
Q 5113 2597 4934 2840 
Q 4756 3084 4391 3084 
Q 3944 3084 3684 2787 
Q 3425 2491 3425 1978 
L 3425 0 
L 2847 0 
L 2847 2094 
Q 2847 2600 2669 2842 
Q 2491 3084 2119 3084 
Q 1678 3084 1418 2786 
Q 1159 2488 1159 1978 
L 1159 0 
L 581 0 
L 581 3500 
L 1159 3500 
L 1159 2956 
Q 1356 3278 1631 3431 
Q 1906 3584 2284 3584 
Q 2666 3584 2933 3390 
Q 3200 3197 3328 2828 
z
" transform="scale(0.015625)"/>
      </defs>
      <use xlink:href="#DejaVuSans-6e"/>
      <use xlink:href="#DejaVuSans-6f" x="63.378906"/>
      <use xlink:href="#DejaVuSans-72" x="124.560547"/>
      <use xlink:href="#DejaVuSans-6d" x="163.923828"/>
      <use xlink:href="#DejaVuSans-61" x="261.335938"/>
      <use xlink:href="#DejaVuSans-6c" x="322.615234"/>
     </g>
    </g>
    <g id="line2d_11">
     <path d="M 111.105053 123.250125 
L 137.505053 123.250125 
L 163.905053 123.250125 
" style="fill: none; stroke: #008000; stroke-width: 1.5; stroke-linecap: square"/>
    </g>
    <g id="text_10">
     <!-- beta -->
     <g transform="translate(185.025053 132.490125) scale(0.264 -0.264)">
      <defs>
       <path id="DejaVuSans-62" d="M 3116 1747 
Q 3116 2381 2855 2742 
Q 2594 3103 2138 3103 
Q 1681 3103 1420 2742 
Q 1159 2381 1159 1747 
Q 1159 1113 1420 752 
Q 1681 391 2138 391 
Q 2594 391 2855 752 
Q 3116 1113 3116 1747 
z
M 1159 2969 
Q 1341 3281 1617 3432 
Q 1894 3584 2278 3584 
Q 2916 3584 3314 3078 
Q 3713 2572 3713 1747 
Q 3713 922 3314 415 
Q 2916 -91 2278 -91 
Q 1894 -91 1617 61 
Q 1341 213 1159 525 
L 1159 0 
L 581 0 
L 581 4863 
L 1159 4863 
L 1159 2969 
z
" transform="scale(0.015625)"/>
      </defs>
      <use xlink:href="#DejaVuSans-62"/>
      <use xlink:href="#DejaVuSans-65" x="63.476562"/>
      <use xlink:href="#DejaVuSans-74" x="125"/>
      <use xlink:href="#DejaVuSans-61" x="164.208984"/>
     </g>
    </g>
    <g id="PathCollection_2">
     <g>
      <use xlink:href="#md9d5d36123" x="137.505053" y="164.310375" style="stroke: #000000"/>
     </g>
    </g>
    <g id="text_11">
     <!-- observed -->
     <g transform="translate(185.025053 171.240375) scale(0.264 -0.264)">
      <defs>
       <path id="DejaVuSans-73" d="M 2834 3397 
L 2834 2853 
Q 2591 2978 2328 3040 
Q 2066 3103 1784 3103 
Q 1356 3103 1142 2972 
Q 928 2841 928 2578 
Q 928 2378 1081 2264 
Q 1234 2150 1697 2047 
L 1894 2003 
Q 2506 1872 2764 1633 
Q 3022 1394 3022 966 
Q 3022 478 2636 193 
Q 2250 -91 1575 -91 
Q 1294 -91 989 -36 
Q 684 19 347 128 
L 347 722 
Q 666 556 975 473 
Q 1284 391 1588 391 
Q 1994 391 2212 530 
Q 2431 669 2431 922 
Q 2431 1156 2273 1281 
Q 2116 1406 1581 1522 
L 1381 1569 
Q 847 1681 609 1914 
Q 372 2147 372 2553 
Q 372 3047 722 3315 
Q 1072 3584 1716 3584 
Q 2034 3584 2315 3537 
Q 2597 3491 2834 3397 
z
" transform="scale(0.015625)"/>
       <path id="DejaVuSans-64" d="M 2906 2969 
L 2906 4863 
L 3481 4863 
L 3481 0 
L 2906 0 
L 2906 525 
Q 2725 213 2448 61 
Q 2172 -91 1784 -91 
Q 1150 -91 751 415 
Q 353 922 353 1747 
Q 353 2572 751 3078 
Q 1150 3584 1784 3584 
Q 2172 3584 2448 3432 
Q 2725 3281 2906 2969 
z
M 947 1747 
Q 947 1113 1208 752 
Q 1469 391 1925 391 
Q 2381 391 2643 752 
Q 2906 1113 2906 1747 
Q 2906 2381 2643 2742 
Q 2381 3103 1925 3103 
Q 1469 3103 1208 2742 
Q 947 2381 947 1747 
z
" transform="scale(0.015625)"/>
      </defs>
      <use xlink:href="#DejaVuSans-6f"/>
      <use xlink:href="#DejaVuSans-62" x="61.181641"/>
      <use xlink:href="#DejaVuSans-73" x="124.658203"/>
      <use xlink:href="#DejaVuSans-65" x="176.757812"/>
      <use xlink:href="#DejaVuSans-72" x="238.28125"/>
      <use xlink:href="#DejaVuSans-76" x="279.394531"/>
      <use xlink:href="#DejaVuSans-65" x="338.574219"/>
      <use xlink:href="#DejaVuSans-64" x="400.097656"/>
     </g>
    </g>
   </g>
  </g>
 </g>
 <defs>
  <clipPath id="pcc4fa77675">
   <rect x="44.74" y="49.92" width="286.437928" height="257.72"/>
  </clipPath>
 </defs>
</svg>
